<svg width="10" height="10" viewBox="0 0 10 10" fill="none" xmlns="http://www.w3.org/2000/svg">
<path fill-rule="evenodd" clip-rule="evenodd" d="M4.18097 0.482094C4.5525 -0.160699 5.4475 -0.160698 5.81903 0.482095L6.96142 2.45863C6.99223 2.51192 7.04247 2.54993 7.10066 2.56396L9.25905 3.08446C9.96098 3.25373 10.2376 4.14003 9.76523 4.70657L8.31289 6.44863C8.27373 6.4956 8.25454 6.55709 8.2597 6.61906L8.45126 8.91728C8.51356 9.66469 7.78948 10.2124 7.12605 9.9198L5.08605 9.01991C5.03105 8.99565 4.96895 8.99565 4.91395 9.01991L2.87395 9.9198C2.21052 10.2124 1.48644 9.66469 1.54874 8.91728L1.7403 6.61906C1.74546 6.55709 1.72627 6.4956 1.68711 6.44863L0.234767 4.70656C-0.237553 4.14003 0.0390203 3.25373 0.740952 3.08446L2.89934 2.56396C2.95753 2.54993 3.00777 2.51192 3.03857 2.45863L4.18097 0.482094ZM5.18901 0.876878C5.10327 0.72854 4.89673 0.728541 4.81099 0.876877L3.66859 2.85342C3.53512 3.08434 3.31742 3.24903 3.06525 3.30984L0.90686 3.83034C0.744875 3.8694 0.681051 4.07393 0.790048 4.20467L2.24239 5.94674C2.41208 6.15027 2.49523 6.41675 2.47285 6.68525L2.28129 8.98348C2.26692 9.15596 2.43401 9.28236 2.58711 9.21483L4.62711 8.31494C4.86545 8.20981 5.13455 8.20981 5.37289 8.31494L7.41289 9.21483C7.56599 9.28236 7.73308 9.15596 7.71871 8.98348L7.52715 6.68525C7.50477 6.41675 7.58792 6.15027 7.75761 5.94674L9.20995 4.20467C9.31895 4.07393 9.25512 3.8694 9.09314 3.83034L6.93475 3.30984C6.68258 3.24903 6.46488 3.08434 6.33141 2.85342L5.18901 0.876878Z" fill="#1E1E1E"/>
</svg>
